<mxfile host="app.diagrams.net" modified="2022-06-20T10:29:54.759Z" agent="5.0 (Windows NT 10.0; Win64; x64) AppleWebKit/537.36 (KHTML, like Gecko) Chrome/102.0.0.0 Safari/537.36" etag="og0adOVJYlWg7hyeaBkJ" version="19.0.0" type="github">
  <diagram id="lHmjGk1OeLpbmsNzeca1" name="Page-1">
    <mxGraphModel dx="1597" dy="842" grid="1" gridSize="10" guides="1" tooltips="1" connect="1" arrows="1" fold="1" page="1" pageScale="1" pageWidth="827" pageHeight="1169" math="0" shadow="0">
      <root>
        <mxCell id="0" />
        <mxCell id="1" parent="0" />
        <mxCell id="tvN4WLIDojKMe9IwV26O-22" value="" style="rounded=1;whiteSpace=wrap;html=1;fontFamily=Comic Sans MS;fontSize=14;fillColor=#f5f5f5;strokeColor=#878FFF;fontColor=#333333;shadow=0;glass=0;sketch=0;" parent="1" vertex="1">
          <mxGeometry x="720" y="520" width="330" height="250" as="geometry" />
        </mxCell>
        <mxCell id="tvN4WLIDojKMe9IwV26O-15" style="edgeStyle=orthogonalEdgeStyle;rounded=0;orthogonalLoop=1;jettySize=auto;html=1;entryX=0;entryY=0.5;entryDx=0;entryDy=0;entryPerimeter=0;" parent="1" source="tvN4WLIDojKMe9IwV26O-3" target="tvN4WLIDojKMe9IwV26O-14" edge="1">
          <mxGeometry relative="1" as="geometry" />
        </mxCell>
        <mxCell id="tvN4WLIDojKMe9IwV26O-19" style="edgeStyle=orthogonalEdgeStyle;rounded=0;orthogonalLoop=1;jettySize=auto;html=1;" parent="1" source="tvN4WLIDojKMe9IwV26O-3" target="tvN4WLIDojKMe9IwV26O-16" edge="1">
          <mxGeometry relative="1" as="geometry" />
        </mxCell>
        <mxCell id="tvN4WLIDojKMe9IwV26O-20" style="edgeStyle=orthogonalEdgeStyle;rounded=0;orthogonalLoop=1;jettySize=auto;html=1;entryX=0;entryY=0.5;entryDx=0;entryDy=0;entryPerimeter=0;" parent="1" source="tvN4WLIDojKMe9IwV26O-3" target="tvN4WLIDojKMe9IwV26O-17" edge="1">
          <mxGeometry relative="1" as="geometry" />
        </mxCell>
        <mxCell id="tvN4WLIDojKMe9IwV26O-3" value="" style="shape=datastore;whiteSpace=wrap;html=1;fillColor=#dae8fc;strokeColor=#6c8ebf;" parent="1" vertex="1">
          <mxGeometry x="760" y="585" width="70" height="70" as="geometry" />
        </mxCell>
        <mxCell id="tvN4WLIDojKMe9IwV26O-14" value="" style="sketch=0;aspect=fixed;pointerEvents=1;shadow=0;dashed=0;html=1;strokeColor=#d6b656;labelPosition=center;verticalLabelPosition=bottom;verticalAlign=top;align=center;fillColor=#fff2cc;shape=mxgraph.mscae.enterprise.folder" parent="1" vertex="1">
          <mxGeometry x="980" y="540" width="50" height="43" as="geometry" />
        </mxCell>
        <mxCell id="tvN4WLIDojKMe9IwV26O-16" value="" style="sketch=0;aspect=fixed;pointerEvents=1;shadow=0;dashed=0;html=1;strokeColor=#d6b656;labelPosition=center;verticalLabelPosition=bottom;verticalAlign=top;align=center;fillColor=#fff2cc;shape=mxgraph.mscae.enterprise.folder" parent="1" vertex="1">
          <mxGeometry x="980" y="598.5" width="50" height="43" as="geometry" />
        </mxCell>
        <mxCell id="tvN4WLIDojKMe9IwV26O-17" value="" style="sketch=0;aspect=fixed;pointerEvents=1;shadow=0;dashed=0;html=1;strokeColor=#d6b656;labelPosition=center;verticalLabelPosition=bottom;verticalAlign=top;align=center;fillColor=#fff2cc;shape=mxgraph.mscae.enterprise.folder" parent="1" vertex="1">
          <mxGeometry x="980" y="659" width="50" height="43" as="geometry" />
        </mxCell>
        <mxCell id="tvN4WLIDojKMe9IwV26O-21" value="SQL" style="text;html=1;align=center;verticalAlign=middle;resizable=0;points=[];autosize=1;strokeColor=none;fillColor=none;fontFamily=Comic Sans MS;fontSize=14;" parent="1" vertex="1">
          <mxGeometry x="770" y="621.5" width="50" height="20" as="geometry" />
        </mxCell>
        <mxCell id="tvN4WLIDojKMe9IwV26O-23" value="" style="rounded=1;whiteSpace=wrap;html=1;shadow=0;glass=0;sketch=0;fontFamily=Comic Sans MS;fontSize=14;strokeColor=#E3E9F2;fillColor=#dae8fc;arcSize=5;" parent="1" vertex="1">
          <mxGeometry x="30" y="100" width="490" height="350" as="geometry" />
        </mxCell>
        <mxCell id="4-EjzXVP2sMjGlYDWPHp-6" value="" style="strokeWidth=1;shadow=0;dashed=0;align=center;html=1;shape=mxgraph.mockup.containers.browserWindow;rSize=0;strokeColor=#666666;strokeColor2=#008cff;strokeColor3=#c4c4c4;mainText=,;recursiveResize=0;fontFamily=Helvetica;fontSize=18;" parent="1" vertex="1">
          <mxGeometry x="63" y="140" width="430" height="260" as="geometry" />
        </mxCell>
        <mxCell id="4-EjzXVP2sMjGlYDWPHp-7" value="Page 1" style="strokeWidth=1;shadow=0;dashed=0;align=center;html=1;shape=mxgraph.mockup.containers.anchor;fontSize=17;fontColor=#666666;align=left;fontFamily=Helvetica;" parent="4-EjzXVP2sMjGlYDWPHp-6" vertex="1">
          <mxGeometry x="60" y="12" width="110" height="26" as="geometry" />
        </mxCell>
        <mxCell id="4-EjzXVP2sMjGlYDWPHp-8" value="http://localhost:3000/" style="strokeWidth=1;shadow=0;dashed=0;align=center;html=1;shape=mxgraph.mockup.containers.anchor;rSize=0;fontSize=17;fontColor=#666666;align=left;fontFamily=Helvetica;" parent="4-EjzXVP2sMjGlYDWPHp-6" vertex="1">
          <mxGeometry x="130" y="60" width="250" height="26" as="geometry" />
        </mxCell>
        <mxCell id="4-EjzXVP2sMjGlYDWPHp-5" value="Frontend" style="text;html=1;align=center;verticalAlign=middle;resizable=0;points=[];autosize=1;strokeColor=none;fillColor=none;fontSize=22;fontFamily=Helvetica;" parent="1" vertex="1">
          <mxGeometry x="60" y="410" width="100" height="30" as="geometry" />
        </mxCell>
        <mxCell id="dtsdlSim27Gc0VsLpPKh-13" value="grey_goose DB" style="text;html=1;align=center;verticalAlign=middle;resizable=0;points=[];autosize=1;strokeColor=none;fillColor=none;fontSize=22;fontFamily=Helvetica;" vertex="1" parent="1">
          <mxGeometry x="799.9988461538462" y="725.0015151515152" width="170" height="30" as="geometry" />
        </mxCell>
        <mxCell id="dtsdlSim27Gc0VsLpPKh-21" value="" style="group" vertex="1" connectable="0" parent="1">
          <mxGeometry x="760" y="149" width="210" height="255" as="geometry" />
        </mxCell>
        <mxCell id="dtsdlSim27Gc0VsLpPKh-17" value="" style="rounded=1;whiteSpace=wrap;html=1;shadow=0;glass=0;sketch=0;fontFamily=Comic Sans MS;fontSize=14;strokeColor=#36393d;fillColor=#FBFFC7;arcSize=5;" vertex="1" parent="dtsdlSim27Gc0VsLpPKh-21">
          <mxGeometry width="210.00000000000003" height="255.00000000000003" as="geometry" />
        </mxCell>
        <mxCell id="dtsdlSim27Gc0VsLpPKh-7" value="Servlet APIs" style="text;html=1;align=center;verticalAlign=middle;resizable=0;points=[];autosize=1;strokeColor=none;fillColor=none;fontSize=22;fontFamily=Helvetica;" vertex="1" parent="dtsdlSim27Gc0VsLpPKh-21">
          <mxGeometry x="38.999230769230735" y="205.00090909090915" width="140" height="30" as="geometry" />
        </mxCell>
        <mxCell id="dtsdlSim27Gc0VsLpPKh-16" value="" style="verticalLabelPosition=bottom;sketch=0;aspect=fixed;html=1;verticalAlign=top;strokeColor=none;align=center;outlineConnect=0;shape=mxgraph.citrix.tower_server;fontSize=22;fillColor=#FEE8FF;" vertex="1" parent="dtsdlSim27Gc0VsLpPKh-21">
          <mxGeometry x="57.05421052631573" y="44.99565217391307" width="99.88263157894738" height="130.62000000000003" as="geometry" />
        </mxCell>
        <mxCell id="dtsdlSim27Gc0VsLpPKh-28" value="" style="endArrow=classic;html=1;rounded=0;fontSize=22;entryX=0.383;entryY=-0.002;entryDx=0;entryDy=0;entryPerimeter=0;strokeWidth=2;exitX=0.418;exitY=1.001;exitDx=0;exitDy=0;exitPerimeter=0;" edge="1" parent="1" source="dtsdlSim27Gc0VsLpPKh-17" target="tvN4WLIDojKMe9IwV26O-22">
          <mxGeometry width="50" height="50" relative="1" as="geometry">
            <mxPoint x="650" y="450.07" as="sourcePoint" />
            <mxPoint x="890" y="449.99500000000006" as="targetPoint" />
          </mxGeometry>
        </mxCell>
        <mxCell id="dtsdlSim27Gc0VsLpPKh-29" value="" style="endArrow=classic;html=1;rounded=0;fontSize=22;entryX=0.616;entryY=1.003;entryDx=0;entryDy=0;entryPerimeter=0;strokeWidth=2;" edge="1" parent="1" source="tvN4WLIDojKMe9IwV26O-22" target="dtsdlSim27Gc0VsLpPKh-17">
          <mxGeometry width="50" height="50" relative="1" as="geometry">
            <mxPoint x="890.0000000000001" y="518.48" as="sourcePoint" />
            <mxPoint x="890.34" y="404" as="targetPoint" />
          </mxGeometry>
        </mxCell>
        <mxCell id="dtsdlSim27Gc0VsLpPKh-30" value="" style="group" vertex="1" connectable="0" parent="1">
          <mxGeometry x="180" y="517.5" width="210" height="255" as="geometry" />
        </mxCell>
        <mxCell id="dtsdlSim27Gc0VsLpPKh-8" value="" style="rounded=1;whiteSpace=wrap;html=1;shadow=0;glass=0;sketch=0;fontFamily=Comic Sans MS;fontSize=14;strokeColor=#36393d;fillColor=#FBFFC7;arcSize=5;" vertex="1" parent="dtsdlSim27Gc0VsLpPKh-30">
          <mxGeometry width="210.00000000000003" height="255.00000000000003" as="geometry" />
        </mxCell>
        <mxCell id="dtsdlSim27Gc0VsLpPKh-9" value="" style="verticalLabelPosition=bottom;sketch=0;aspect=fixed;html=1;verticalAlign=top;strokeColor=none;align=center;outlineConnect=0;shape=mxgraph.citrix.tower_server;fontSize=22;fillColor=#FEE8FF;" vertex="1" parent="dtsdlSim27Gc0VsLpPKh-30">
          <mxGeometry x="56.534210526315746" y="46.36565217391308" width="99.88263157894738" height="130.62000000000003" as="geometry" />
        </mxCell>
        <mxCell id="dtsdlSim27Gc0VsLpPKh-10" value="Flask API" style="text;html=1;align=center;verticalAlign=middle;resizable=0;points=[];autosize=1;strokeColor=none;fillColor=none;fontSize=22;fontFamily=Helvetica;" vertex="1" parent="dtsdlSim27Gc0VsLpPKh-30">
          <mxGeometry x="53.99925101214575" y="207.00276679841897" width="110" height="30" as="geometry" />
        </mxCell>
        <mxCell id="dtsdlSim27Gc0VsLpPKh-31" value="" style="group" vertex="1" connectable="0" parent="1">
          <mxGeometry x="520" y="260" width="240" height="40.06999999999999" as="geometry" />
        </mxCell>
        <mxCell id="dtsdlSim27Gc0VsLpPKh-24" value="" style="endArrow=classic;html=1;rounded=0;fontSize=22;entryX=0;entryY=0.435;entryDx=0;entryDy=0;entryPerimeter=0;strokeWidth=2;" edge="1" parent="dtsdlSim27Gc0VsLpPKh-31" target="dtsdlSim27Gc0VsLpPKh-17">
          <mxGeometry width="50" height="50" relative="1" as="geometry">
            <mxPoint as="sourcePoint" />
            <mxPoint x="50" y="-50" as="targetPoint" />
          </mxGeometry>
        </mxCell>
        <mxCell id="dtsdlSim27Gc0VsLpPKh-26" value="" style="endArrow=classic;html=1;rounded=0;fontSize=22;entryX=0;entryY=0.435;entryDx=0;entryDy=0;entryPerimeter=0;strokeWidth=2;" edge="1" parent="dtsdlSim27Gc0VsLpPKh-31">
          <mxGeometry width="50" height="50" relative="1" as="geometry">
            <mxPoint x="240" y="39.99500000000006" as="sourcePoint" />
            <mxPoint y="40.06999999999999" as="targetPoint" />
          </mxGeometry>
        </mxCell>
        <mxCell id="dtsdlSim27Gc0VsLpPKh-34" value="" style="endArrow=classic;html=1;rounded=0;fontSize=22;entryX=0;entryY=0.571;entryDx=0;entryDy=0;entryPerimeter=0;strokeWidth=2;exitX=1;exitY=0.574;exitDx=0;exitDy=0;exitPerimeter=0;" edge="1" parent="1" source="dtsdlSim27Gc0VsLpPKh-8" target="tvN4WLIDojKMe9IwV26O-22">
          <mxGeometry width="50" height="50" relative="1" as="geometry">
            <mxPoint x="410" y="663" as="sourcePoint" />
            <mxPoint x="690" y="662.4250000000002" as="targetPoint" />
          </mxGeometry>
        </mxCell>
        <mxCell id="dtsdlSim27Gc0VsLpPKh-35" value="" style="endArrow=classic;html=1;rounded=0;fontSize=22;entryX=0.428;entryY=0.009;entryDx=0;entryDy=0;strokeWidth=2;exitX=0.418;exitY=1.001;exitDx=0;exitDy=0;exitPerimeter=0;entryPerimeter=0;" edge="1" parent="1" target="dtsdlSim27Gc0VsLpPKh-8">
          <mxGeometry width="50" height="50" relative="1" as="geometry">
            <mxPoint x="271.3900000000002" y="450.0049999999999" as="sourcePoint" />
            <mxPoint x="270.00000000000034" y="565.25" as="targetPoint" />
          </mxGeometry>
        </mxCell>
        <mxCell id="dtsdlSim27Gc0VsLpPKh-36" value="" style="endArrow=classic;html=1;rounded=0;fontSize=22;entryX=0.571;entryY=1.001;entryDx=0;entryDy=0;entryPerimeter=0;strokeWidth=2;exitX=0.611;exitY=0.004;exitDx=0;exitDy=0;exitPerimeter=0;" edge="1" parent="1" source="dtsdlSim27Gc0VsLpPKh-8" target="tvN4WLIDojKMe9IwV26O-23">
          <mxGeometry width="50" height="50" relative="1" as="geometry">
            <mxPoint x="310.87861198409917" y="565.75" as="sourcePoint" />
            <mxPoint x="312.97000000000014" y="450.5149999999999" as="targetPoint" />
          </mxGeometry>
        </mxCell>
      </root>
    </mxGraphModel>
  </diagram>
</mxfile>
